#!OML:ASF F:\VICON\USERDATA\INSTALL\rory3\rory3.ASF
:FULLY-SPECIFIED
:DEGREES
97
root 4.05455 17.6046 3.09506 18.0734 -18.7518 -3.54382
lowerback -5.95651 4.12909 4.06238
upperback -10.6755 5.42371 -0.239908
thorax -7.5081 2.3605 -2.5215
lowerneck -7.06065 10.8018 6.77392
upperneck 28.4203 12.9297 4.82094
head 10.402 7.21002 2.01279
rclavicle 4.12684e-014 2.36523e-014
rhumerus 12.936 -20.7228 -0.967045
rradius 118.116
rwrist -56.8549
rhand -6.8126 -46.1736
rfingers 7.12502
rthumb 19.051 -75.2605
lclavicle 4.12684e-014 2.36523e-014
lhumerus 26.6505 26.9022 -14.6366
lradius 39.0142
lwrist 41.796
lhand -28.9767 -24.9063
lfingers 7.12502
lthumb -2.32919 5.0607
rfemur -9.42961 2.03262 -1.30169
rtibia 13.6623
rfoot -33.8967 -23.1741
rtoes 50.9632
lfemur -24.5169 0.466601 -24.6381
ltibia 22.1324
lfoot -13.0966 12.7017
ltoes 12.4326
98
root 4.06514 17.597 3.08725 18.0371 -18.7177 -3.34351
lowerback -5.92863 4.10827 3.87805
upperback -10.6868 5.39803 -0.273294
thorax -7.5496 2.35908 -2.45847
lowerneck -7.11691 10.7051 6.46157
upperneck 28.5905 12.8092 4.94445
head 10.4378 7.13862 2.09782
rclavicle 1.51993e-014 -5.36097e-015
rhumerus 13.0345 -20.684 -1.15832
rradius 118.171
rwrist -56.9293
rhand -7.15533 -46.1981
rfingers 7.12502
rthumb 18.7214 -75.3172
lclavicle 1.51993e-014 -5.36097e-015
lhumerus 27.0897 27.4353 -13.7086
lradius 38.9682
lwrist 40.872
lhand -29.0751 -25.058
lfingers 7.12502
lthumb -2.42419 4.90798
rfemur -9.57968 1.73507 -1.53223
rtibia 13.9043
rfoot -34.0917 -22.4414
rtoes 51.376
lfemur -24.6676 0.407689 -24.8678
ltibia 22.2592
lfoot -13.0818 12.6489
ltoes 12.507
99
root 4.07249 17.5931 3.07352 17.9766 -18.8293 -3.23569
lowerback -5.84288 4.14127 3.67684
upperback -10.5956 5.44646 -0.290831
thorax -7.50833 2.40051 -2.36862
lowerneck -7.51146 10.5807 6.41295
upperneck 28.9295 12.6539 4.78161
head 10.6468 7.04274 2.07703
rclavicle 2.21078e-014 8.4732e-015
rhumerus 13.1774 -20.7812 -1.31068
rradius 118.159
rwrist -56.8632
rhand -7.32504 -46.1551
rfingers 7.12502
rthumb 18.5582 -75.2898
lclavicle 2.21078e-014 8.4732e-015
lhumerus 27.2261 27.7299 -13.2671
lradius 39.0768
lwrist 40.5946
lhand -29.504 -25.485
lfingers 7.12502
lthumb -2.83849 4.47584
rfemur -9.8026 1.827 -1.69744
rtibia 14.1594
rfoot -33.7986 -22.6465
rtoes 51.3546
lfemur -24.7948 0.486857 -25.0091
ltibia 22.3803
lfoot -13.0717 12.6325
ltoes 12.4234
100
root 4.07968 17.5924 3.07416 18.0331 -18.9339 -3.41854
lowerback -5.90619 4.22589 3.82394
upperback -10.497 5.5532 -0.288727
thorax -7.34431 2.44895 -2.43603
lowerneck -8.21244 10.389 6.94827
upperneck 29.6785 12.4251 4.07495
head 11.165 6.90712 1.81674
rclavicle 5.36719e-015 -1.90119e-014
rhumerus 13.3108 -20.88 -1.47431
rradius 118.106
rwrist -56.8329
rhand -7.21285 -46.092
rfingers 7.12502
rthumb 18.6661 -75.2165
lclavicle 5.36719e-015 -1.90119e-014
lhumerus 27.4546 28.0318 -12.8562
lradius 39.2217
lwrist 40.6649
lhand -29.7902 -25.716
lfingers 7.12502
lthumb -3.11489 4.24104
rfemur -10.0538 1.87314 -1.56971
rtibia 14.4242
rfoot -32.8391 -23.7796
rtoes 50.858
lfemur -24.8661 0.616579 -24.8754
ltibia 22.4874
lfoot -13.1151 12.6302
ltoes 12.4398
101
root 4.08741 17.5894 3.08495 18.1375 -19.0697 -3.60072
lowerback -6.08632 4.3212 4.00705
upperback -10.4577 5.66733 -0.289451
thorax -7.17567 2.49775 -2.51888
lowerneck -8.54662 10.1279 7.06583
upperneck 30.0818 12.1088 3.70178
head 11.4191 6.72916 1.67089
rclavicle -2.75907e-014 4.72114e-016
rhumerus 13.3364 -20.8434 -1.54711
rradius 118.148
rwrist -56.929
rhand -7.21075 -46.1123
rfingers 7.12502
rthumb 18.6681 -75.2365
lclavicle -2.75907e-014 4.72114e-016
lhumerus 27.8321 28.4632 -12.1892
lradius 39.372
lwrist 40.5627
lhand -29.4261 -25.6805
lfingers 7.12502
lthumb -2.76326 4.28133
rfemur -10.3493 1.69719 -1.46064
rtibia 14.6881
rfoot -31.6953 -25.0547
rtoes 50.1262
lfemur -24.9196 0.732502 -24.7813
ltibia 22.5861
lfoot -13.1789 12.6935
ltoes 12.517
102
root 4.09553 17.5871 3.09395 18.0585 -19.2513 -3.70219
lowerback -6.08852 4.39655 4.15001
upperback -10.4043 5.76315 -0.314576
thorax -7.09412 2.53706 -2.61886
lowerneck -8.30563 9.91299 7.02745
upperneck 30.0446 11.8716 3.53845
head 11.3605 6.59932 1.56979
rclavicle -7.96412e-014 -1.15544e-014
rhumerus 13.3965 -20.7318 -1.71699
rradius 118.194
rwrist -56.8601
rhand -7.23257 -46.1947
rfingers 7.12502
rthumb 18.6471 -75.321
lclavicle -7.96412e-014 -1.15544e-014
lhumerus 27.6353 28.2247 -12.3225
lradius 39.8962
lwrist 41.2044
lhand -29.0864 -25.5234
lfingers 7.12502
lthumb -2.43519 4.4424
rfemur -10.466 1.61478 -1.43526
rtibia 14.8496
rfoot -30.4723 -26.4875
rtoes 49.2758
lfemur -24.8131 0.68393 -24.7339
ltibia 22.7011
lfoot -13.2537 12.9679
ltoes 12.4916
103
root 4.09943 17.5935 3.07249 18.2425 -18.9891 -3.72969
lowerback -5.94555 4.27257 4.09267
upperback -10.5469 5.61039 -0.307789
thorax -7.34942 2.45557 -2.60171
lowerneck -8.27609 9.78753 7.05623
upperneck 30.2538 11.7255 3.41095
head 11.4447 6.52118 1.50943
rclavicle -6.57605e-014 -7.50412e-015
rhumerus 13.5942 -20.5029 -2.06745
rradius 118.182
rwrist -56.5785
rhand -7.23153 -46.1353
rfingers 7.12502
rthumb 18.6481 -75.2614
lclavicle -6.57605e-014 -7.50412e-015
lhumerus 27.2471 27.7966 -12.7029
lradius 40.5341
lwrist 42.1197
lhand -28.6021 -25.3236
lfingers 7.12502
lthumb -1.96741 4.64711
rfemur -10.7038 1.57313 -1.31558
rtibia 15.0187
rfoot -31.3541 -25.8823
rtoes 49.8617
lfemur -25.1949 0.630711 -24.6323
ltibia 22.8137
lfoot -13.1654 12.7222
ltoes 12.479
104
root 4.10499 17.5936 3.06216 18.2874 -18.9478 -3.70363
lowerback -5.83267 4.20108 4.00084
upperback -10.6132 5.524 -0.296408
thorax -7.50199 2.41418 -2.55293
lowerneck -8.37093 9.69734 6.9721
upperneck 30.5723 11.593 3.45371
head 11.5761 6.45691 1.54083
rclavicle -3.53153e-015 -1.27968e-014
rhumerus 13.8693 -20.2235 -2.41712
rradius 118.106
rwrist -56.3111
rhand -7.38658 -45.9114
rfingers 7.12502
rthumb 18.499 -75.0517
lclavicle -3.53153e-015 -1.27968e-014
lhumerus 27.2767 27.9432 -12.3986
lradius 40.8371
lwrist 42.1007
lhand -27.417 -25.2889
lfingers 7.12502
lthumb -0.822827 4.68928
rfemur -10.7723 1.62448 -1.37201
rtibia 15.1973
rfoot -33.6863 -22.5681
rtoes 51.7738
lfemur -25.4072 0.669502 -24.6606
ltibia 22.9585
lfoot -13.1835 12.5814
ltoes 12.6093
